<?xml version="1.0" encoding="utf-8"?>
<!-- Generator: Adobe Illustrator 22.0.1, SVG Export Plug-In . SVG Version: 6.00 Build 0)  -->
<svg version="1.1" id="tiebarlogo_xA0_Image_1_" xmlns="http://www.w3.org/2000/svg" xmlns:xlink="http://www.w3.org/1999/xlink"
	 x="0px" y="0px" viewBox="0 0 361.7 93.1" style="enable-background:new 0 0 361.7 93.1;" xml:space="preserve">
<style type="text/css">
	.st0{fill:#00313D;}
</style>
<g>
	<path class="st0" d="M257.5,58.5c-2,0-3.9,0-5.9,0c-1.4,0-2-0.7-2-2.1c0-5.8,0.1-11.5,0.1-17.3c0-0.5-0.1-1-0.1-1.6
		c0-1.3,0.6-2,1.8-2c3.8,0,7.7-0.1,11.5,0c2.5,0.1,4.8,0.9,5.9,3.5c0.8,1.8,0.9,3.7,0,5.6c-0.4,0.9-0.4,1.5,0.2,2.2
		c1.5,1.9,2.1,4,1.5,6.4c-0.5,2-1.8,3.3-3.5,4.2c-1.5,0.7-3.1,1.1-4.8,1C260.8,58.5,259.2,58.5,257.5,58.5
		C257.5,58.5,257.5,58.5,257.5,58.5z M259.6,48.7C259.6,48.7,259.6,48.7,259.6,48.7c-1.4,0-2.8,0-4.2,0c-0.7,0-1.2,0.3-1.2,1
		c0,1,0,2.1,0,3.1c0,0.6,0.4,1.2,1.1,1.2c2.9,0,5.7,0.1,8.6-0.1c1.6-0.1,2.4-1.1,2.4-2.4c0-1.6-0.9-2.8-2.6-2.8
		C262.4,48.7,261,48.7,259.6,48.7z M259.2,44.4c1.2,0,2.5,0,3.7,0c0.5,0,1-0.1,1.3-0.4c0.9-0.6,1.2-1.6,0.8-2.5
		c-0.3-0.9-1.1-1.4-2-1.4c-2,0-4,0-6,0c-2.6,0-3-0.4-2.9,3.2c0,0.8,0.4,1.1,1.2,1.1C256.7,44.4,257.9,44.4,259.2,44.4z"/>
	<path class="st0" d="M310.9,35.6c1.8,0,3.5-0.1,5.3,0c2.3,0.1,4.4,0.8,5.6,2.9c0.7,1.2,1.1,2.7,1.1,4.1c0,2.5-1,4.7-3.2,6
		c-0.6,0.4-0.7,0.7-0.4,1.3c1.4,2.5,2.7,5.1,6,5.5c0.7,0.1,1.1,0.4,1.1,1.2c0,0.9-0.5,1.6-1.3,1.8c-1.4,0.4-2.7,0.4-4.1-0.1
		c-2.3-0.9-3.5-2.8-4.7-4.8c-0.6-1-1.2-1.9-1.8-2.8c-0.5-0.8-1.2-1.1-2-1.1c-1.1,0-2.2,0-3.4,0c-1.2,0-1.5,0.3-1.5,1.5
		c0,1.9,0,3.8,0,5.6c0,1.6-0.3,1.9-1.9,1.9c-1.9,0-2.4-0.3-2.4-2c0-6.4,0-12.7,0-19.1c0-1.5,0.4-1.9,1.9-2
		C307.2,35.5,309.1,35.5,310.9,35.6C310.9,35.5,310.9,35.6,310.9,35.6z M312.7,45.4C312.7,45.4,312.7,45.4,312.7,45.4
		c1.2,0,2.4,0,3.6,0c0.1,0,0.2,0,0.4,0c1.3-0.2,2.4-1.4,2.4-2.9c0-1.4-1-2.8-2.2-2.9c-2.7-0.1-5.3-0.1-8,0c-0.7,0-1.1,0.4-1.1,1.2
		c0,1.1,0,2.2,0,3.2c0,1,0.4,1.4,1.3,1.4C310.3,45.4,311.5,45.4,312.7,45.4z"/>
	<path class="st0" d="M211.7,47c0-3.1,0-6.2,0-9.2c0-1.8,0.5-2.2,2.2-2.2c4.4,0,8.8,0,13.2,0c2.1,0,3.2,1.7,2.2,3.7
		c-0.1,0.3-0.6,0.6-0.9,0.7c-0.5,0.1-1.1,0.2-1.7,0.2c-3,0-5.9,0-8.9,0c-1.4,0-1.8,0.5-1.7,1.8c0.2,2.7,0.2,2.7,3,2.7
		c1.1,0,2.2,0,3.2,0c1.4,0,1.8,0.4,1.9,1.8c0.1,2.1-0.3,2.5-2.4,2.5c-1.4,0-2.7,0-4.1,0c-1.2,0-1.6,0.5-1.6,1.6c0,0.6,0,1.2,0,1.8
		c0,1.1,0.4,1.7,1.5,1.7c3.1,0,6.2,0,9.2,0c0.8,0,1.6,0.1,2.4,0.2c0.7,0.1,1.1,0.5,1.1,1.2c0,0.4,0,0.9,0,1.3
		c-0.1,1.3-0.5,1.7-1.8,1.8c-5.1,0-10.2,0-15.2,0c-1.2,0-1.7-0.6-1.7-2C211.7,53.3,211.7,50.2,211.7,47z"/>
	<path class="st0" d="M141.6,47.2c0-3,0-6,0-9c0-1.8,0.4-2.2,2.2-2.2c4.6,0,9.1,0,13.7,0c1.7,0,1.9,0.3,1.9,2c0,0.2,0,0.3,0,0.5
		c0,1.6-0.3,1.9-1.9,1.9c-2.9,0-5.8,0-8.8,0c-2.6,0-2.6,0-2.6,2.6c0,1.6,0.3,1.9,1.9,1.9c1.4,0,2.8,0,4.2,0c1.6,0,2.1,0.5,2,2.3
		c0,1.6-0.5,2.1-2.1,2.1c-1.4,0-2.9,0-4.3,0c-1.3,0-1.7,0.4-1.7,1.7c0,0.6,0,1.2,0,1.8c0,1.3,0.2,1.5,1.5,1.5c2.9,0,5.8,0,8.8,0
		c0.4,0,0.8,0,1.2,0c2.9,0,2.8,0.2,2.6,3.3c0,0.7-0.6,0.9-1.2,1c-0.7,0-1.4,0-2.2,0c-4.3,0-8.6,0-12.8,0c-2.2,0-2.5-0.3-2.5-2.5
		C141.6,53.1,141.6,50.2,141.6,47.2z"/>
	<path class="st0" d="M115.1,47.4c0-3.2,0-6.3,0-9.5c0-1.6,0.2-1.7,1.7-1.8c2.5,0,2.6,0,2.6,2.6c0,1.6,0,3.1,0,4.7
		c0,0.9,0.4,1.4,1.4,1.4c2.4,0,4.8,0,7.2,0c1.3,0,1.6-0.3,1.6-1.7c0-1.7,0-3.4,0-5.2c0-1.3,0.5-1.8,1.8-1.8c0.3,0,0.6,0,1,0
		c1.4,0.1,1.7,0.4,1.7,1.8c0,6.2,0,12.5,0,18.7c0,0.8,0,1.5-0.9,1.9c-0.9,0.4-2.9,0.2-3.3-0.4c-0.2-0.4-0.3-0.9-0.3-1.3c0-2,0-4,0-6
		c0-1.3-0.3-1.6-1.6-1.7c-2.4,0-4.8,0-7.2,0c-1,0-1.4,0.5-1.4,1.4c0,2.2,0,4.3,0,6.5c0,1.4-0.3,1.6-1.6,1.7c-2.6,0.1-2.7,0-2.7-2.6
		C115.1,53.3,115.1,50.4,115.1,47.4C115.1,47.4,115.1,47.4,115.1,47.4z"/>
	<path class="st0" d="M295.7,58.5c-2.1,0.4-2.5-1.5-3.3-2.9c-0.1-0.2-0.2-0.5-0.3-0.7c-0.6-1.2-1.4-2.1-3-2c-2.1,0.2-4.2,0.1-6.2,0
		c-1.3,0-2.1,0.4-2.6,1.7c-0.4,1-1,2-1.6,2.9c-0.6,0.9-3.1,1.3-3.9,0.8c-0.7-0.4-0.6-1.1-0.3-1.7c1.6-3.5,3.3-7,4.9-10.5
		c1.5-3.2,3.1-6.3,4.6-9.4c0.5-1,1.3-1.3,2.4-1.2c1,0.1,1.6,0.7,2.1,1.6c1.6,3.3,3.1,6.5,4.7,9.8c1.5,3.2,3,6.4,4.5,9.6
		c0.7,1.5,0.4,1.9-1.2,2C296.3,58.5,296.1,58.5,295.7,58.5z M286.2,49.2C286.2,49.2,286.2,49.2,286.2,49.2c0.6,0,1.2,0.1,1.8-0.1
		c0.3-0.1,0.7-0.6,0.7-0.7c-0.6-1.6-1.4-3.1-2.1-4.6c0-0.1-0.1-0.2-0.2-0.2c-0.3,0-0.7,0-0.8,0.1c-0.7,1.3-1.3,2.7-1.9,4.1
		c-0.3,0.8,0,1.3,0.9,1.3C285.1,49.2,285.7,49.2,286.2,49.2z"/>
	<path class="st0" d="M46.2,30.2c3.1,0,6.2,0,9.4,0c1.7,0,1.9,0.2,1.9,1.9c0,2.5-0.1,2.6-2.6,2.6c-1.6,0-3.2,0-4.8,0
		c-1.4,0-1.5,0.1-1.5,1.5c0,5.2,0,10.3,0,15.5c0,0.4,0,0.7,0,1.1c0,0.3-0.1,0.6-0.2,0.8c-0.9,1-2.1,0.7-3.1,0.6
		c-0.9-0.1-1.2-0.9-1.2-1.7c0-3.7,0-7.4,0-11c0-1.7,0-3.4,0-5c0-1.3-0.4-1.6-1.7-1.6c-1.8,0-3.7,0-5.5,0c-1.4,0-1.7-0.4-1.8-1.8
		c0-0.3,0-0.6,0-1c0-1.4,0.4-1.7,1.8-1.7C39.8,30.2,43,30.2,46.2,30.2z"/>
	<path class="st0" d="M183.2,35.6c2.8,0,5.7,0,8.5,0c1.6,0,1.9,0.4,2,2c0,0.3,0,0.6,0,1c-0.1,1.1-0.5,1.5-1.6,1.5c-1.7,0-3.4,0-5,0
		c-1.5,0-1.7,0.3-1.7,1.8c0,4.8,0,9.6,0,14.4c0,2-1.7,3.1-3.5,2.2c-0.4-0.2-0.8-0.9-0.8-1.4c-0.1-1,0-2,0-3c0-4,0-7.9,0-11.9
		c0-1.6-0.4-2-2-2c-1.6,0-3.2,0-4.8-0.1c-1.7-0.1-1.9-0.5-1.8-2.5c0-1.5,0.4-1.9,2-1.9C177.3,35.5,180.2,35.6,183.2,35.6
		C183.2,35.6,183.2,35.6,183.2,35.6z"/>
	<path class="st0" d="M98.6,36c2.9,0,5.8,0,8.6,0c0.8,0,1.7,0,1.9,0.8c0.2,0.9,0.1,2-0.1,2.9c-0.1,0.3-1,0.6-1.5,0.6
		c-1.4,0.1-2.9,0-4.3,0c-0.4,0-0.9,0-1.3,0.1c-0.8,0.1-1.2,0.5-1.2,1.4c0.1,4.8,0.1,9.7,0.1,14.5c0,0.4-0.1,0.7-0.1,1.1
		c0,0.2,0,0.4-0.1,0.6c-0.8,1.1-2,0.5-3,0.6c-0.7,0.1-1.1-0.4-1.1-1.1c0-0.5-0.1-1-0.1-1.6c0-4.6,0-9.3,0-13.9
		c0-1.5-0.2-1.6-1.7-1.6c-1.7,0-3.4,0-5,0c-1,0-1.5-0.5-1.5-1.4c0-0.4,0-0.9,0-1.3c0-1.3,0.4-1.6,1.7-1.6C92.7,35.9,95.6,36,98.6,36
		C98.6,36,98.6,36,98.6,36z"/>
	<path class="st0" d="M46.2,59.7c3.1,0,6.2,0,9.2,0c1.7,0,2,0.3,2,2c0,2.5-0.2,2.8-2.8,2.8c-5.8,0-11.7,0-17.5,0
		c-0.8,0-1.7,0.1-2-0.9c-0.4-1.2-0.6-2.4,0.3-3.4c0.3-0.3,1-0.5,1.5-0.5C39.9,59.7,43,59.7,46.2,59.7C46.2,59.7,46.2,59.7,46.2,59.7
		z"/>
	<path class="st0" d="M199.3,47c0-3.2,0-6.3,0-9.5c0-1.5,0.4-1.9,1.8-1.9c0.4,0,0.8,0,1.2,0c0.7,0,1.1,0.4,1.3,1
		c0.1,0.5,0.1,0.9,0.1,1.4c0,6,0,12.1,0,18.1c0,0.3,0,0.6,0,1c-0.1,1.1-0.5,1.4-1.6,1.5c-2.5,0.1-2.8-0.2-2.7-2.8
		C199.4,52.8,199.4,49.9,199.3,47C199.3,47,199.3,47,199.3,47z"/>
</g>
</svg>
