<?xml version="1.0" encoding="UTF-8" standalone="no"?>
<svg width="9px" height="16px" viewBox="0 0 9 16" version="1.1" xmlns="http://www.w3.org/2000/svg" xmlns:xlink="http://www.w3.org/1999/xlink" xmlns:sketch="http://www.bohemiancoding.com/sketch/ns">
    <!-- Generator: Sketch 3.3.1 (12005) - http://www.bohemiancoding.com/sketch -->
    <title>Shape</title>
    <desc>Created with Sketch.</desc>
    <defs></defs>
    <g id="Page-1" stroke="none" stroke-width="1" fill="none" fill-rule="evenodd" sketch:type="MSPage">
        <path d="M8.6,0 L6.4,0 C4,0 2.4,1.51898734 2.4,3.94936709 L2.4,5.7721519 L0.3,5.7721519 C0.1,5.7721519 0,5.97468354 0,6.07594937 L0,8.70886076 C0,8.91139241 0.2,9.01265823 0.3,9.01265823 L2.5,9.01265823 L2.5,15.6962025 C2.5,15.8987342 2.7,16 2.8,16 L5.6,16 C5.8,16 5.9,15.8987342 5.9,15.6962025 L5.9,9.11392405 L8.4,9.11392405 C8.7,9.11392405 8.9,9.01265823 8.9,8.81012658 L8.9,6.17721519 C8.9,6.07594937 8.9,5.97468354 8.8,5.97468354 C8.7,5.97468354 8.6,5.7721519 8.5,5.7721519 L6,5.7721519 L6,4.25316456 C6,3.5443038 6.2,3.13924051 7.2,3.13924051 L8.7,3.13924051 C8.9,3.13924051 9,3.03797468 9,2.83544304 L9,0.303797468 C9,0.101265823 8.8,0 8.6,0 L8.6,0 Z" id="Shape" fill="#CCCCCC" sketch:type="MSShapeGroup"></path>
    </g>
</svg>