<?xml version="1.0" encoding="UTF-8" standalone="no"?>
<svg width="16px" height="16px" viewBox="0 0 16 16" version="1.1" xmlns="http://www.w3.org/2000/svg" xmlns:xlink="http://www.w3.org/1999/xlink" xmlns:sketch="http://www.bohemiancoding.com/sketch/ns">
    <!-- Generator: Sketch 3.3.1 (12005) - http://www.bohemiancoding.com/sketch -->
    <title>Shape</title>
    <desc>Created with Sketch.</desc>
    <defs></defs>
    <g id="Page-1" stroke="none" stroke-width="1" fill="none" fill-rule="evenodd" sketch:type="MSPage">
        <path d="M2.1,0 L14,0 C15.1,0 16,0.795031056 16,2.08695652 L16,13.9130435 C16,15.1055901 15.1,16 13.9,16 L2.1,16 C0.9,15.9006211 0,15.1055901 0,13.8136646 L0,2.08695652 C0,0.795031056 0.9,0 2.1,0 L2.1,0 L2.1,0 Z M11.7,1.78881988 C11.3,1.78881988 11,2.08695652 11,2.48447205 L11,4.17391304 C11,4.57142857 11.3,4.86956522 11.7,4.86956522 L13.5,4.86956522 C13.9,4.86956522 14.2,4.57142857 14.2,4.17391304 L14.2,2.48447205 C14.2,2.08695652 13.9,1.78881988 13.5,1.78881988 L11.7,1.78881988 L11.7,1.78881988 Z M14.2,6.75776398 L12.8,6.75776398 C12.9,7.1552795 13,7.65217391 13,8.04968944 C13,10.7329193 10.8,12.8198758 8,12.8198758 C5.3,12.8198758 3,10.6335404 3,8.04968944 C3,7.55279503 3.1,7.1552795 3.2,6.65838509 L1.8,6.65838509 L1.8,13.4161491 C1.8,13.7142857 2.1,14.0124224 2.4,14.0124224 L13.5,14.0124224 C13.8,14.0124224 14.1,13.7142857 14.1,13.4161491 L14.2,6.75776398 L14.2,6.75776398 Z M8,4.86956522 C6.2,4.86956522 4.8,6.16149068 4.8,7.95031056 C4.8,9.73913043 6.2,11.0310559 8,11.0310559 C9.8,11.0310559 11.2,9.63975155 11.2,7.95031056 C11.2,6.26086957 9.8,4.86956522 8,4.86956522 L8,4.86956522 Z" id="Shape" fill="#CCCCCC" sketch:type="MSShapeGroup"></path>
    </g>
</svg>