<?xml version="1.0" encoding="UTF-8" standalone="no"?>
<svg width="12px" height="16px" viewBox="0 0 12 16" version="1.1" xmlns="http://www.w3.org/2000/svg" xmlns:xlink="http://www.w3.org/1999/xlink" xmlns:sketch="http://www.bohemiancoding.com/sketch/ns">
    <!-- Generator: Sketch 3.3.1 (12005) - http://www.bohemiancoding.com/sketch -->
    <title>Shape</title>
    <desc>Created with Sketch.</desc>
    <defs></defs>
    <g id="Page-1" stroke="none" stroke-width="1" fill="none" fill-rule="evenodd" sketch:type="MSPage">
        <path d="M10.284843,1.70708916 C8.20045074,-0.601226425 4.82572046,-0.40050333 2.44355791,1.30564297 C0.458422458,2.81106618 -0.931172361,6.12299725 0.756192777,8.43131284 C1.0539631,8.93312057 1.55024696,9.13384367 2.1457876,9.33456676 C2.24504437,9.33456676 2.44355791,9.33456676 2.44355791,9.13384367 C2.54281469,8.83275902 2.64207146,8.53167438 2.74132823,8.23058974 C2.74132823,8.13022819 2.64207146,8.02986665 2.54281469,8.02986665 C1.0539631,6.32372034 2.04653082,4.21612785 3.53538242,2.91142773 C4.82572046,1.80745071 7.20788301,0.70347369 8.6967346,2.00817381 C9.7885591,2.91142773 9.7885591,4.61757404 9.7885591,5.92227415 C9.68930233,7.52805891 9.09376169,9.23420521 7.50565333,9.73601295 C7.00936946,9.93673605 6.31457205,9.8363745 6.01680174,9.43492831 C5.61977464,8.83275902 5.71903142,8.23058974 5.91754496,7.62842046 C6.11605851,6.72516653 6.71159915,5.42046642 6.21531528,4.41685094 C5.52051787,3.31287392 4.23017982,4.31648939 3.83315273,5.01902023 C3.63463919,5.52082796 3.2376121,7.02625117 3.83315273,7.32733581 C3.13835532,9.03348212 2.74132823,10.83999 2.44355791,12.5461363 C2.34430114,13.3490287 2.1457876,14.151921 2.34430114,14.9548134 C2.34430114,14.9548134 2.54281469,15.5569827 2.64207146,15.8580673 C2.64207146,15.9584289 2.84058501,16.0587904 2.93984178,15.9584289 C3.53538242,15.1555365 4.13092305,14.3526441 4.42869337,13.4493902 C4.62720692,12.9475825 4.62720692,12.3454132 4.72646369,11.8436054 C4.92497723,11.4421593 5.02423401,11.0407131 5.02423401,10.6392669 L5.02423401,10.6392669 C5.52051787,11.0407131 6.21531528,11.3417977 6.81085592,11.5425208 C7.80342365,11.7432439 8.89524815,11.3417977 9.68930233,10.83999 C9.7885591,10.7396284 9.88781587,10.6392669 10.0863294,10.5389053 C10.4833565,10.3381822 10.7811268,9.93673605 11.0788971,9.53528986 C12.6670055,7.22697427 12.0714649,3.71432011 10.284843,1.70708916 L10.284843,1.70708916 Z M2.24504437,8.43131284 L2.24504437,8.43131284 C2.24504437,8.43131284 2.24504437,8.53167438 2.24504437,8.43131284 C2.24504437,8.43131284 2.1457876,8.43131284 2.24504437,8.43131284 C2.1457876,8.43131284 2.1457876,8.33095129 2.24504437,8.43131284 C2.1457876,8.33095129 2.1457876,8.43131284 2.24504437,8.43131284 L2.24504437,8.43131284 Z M1.25247664,3.81468166 C1.0539631,4.1157663 0.954706322,4.41685094 0.85544955,4.61757404 C0.954706322,4.31648939 1.0539631,4.01540475 1.25247664,3.81468166 C1.15321987,3.81468166 1.25247664,3.81468166 1.25247664,3.81468166 L1.25247664,3.81468166 L1.25247664,3.81468166 Z M10.284843,2.71070464 C10.284843,2.71070464 10.284843,2.61034309 10.284843,2.71070464 L10.1855862,2.61034309 L10.1855862,2.50998154 C10.284843,2.61034309 10.3840997,2.71070464 10.4833565,2.91142773 C10.3840997,2.81106618 10.3840997,2.71070464 10.284843,2.71070464 L10.284843,2.71070464 Z" id="Shape" fill="#CCCCCC" sketch:type="MSShapeGroup"></path>
    </g>
</svg>