<?xml version="1.0" encoding="UTF-8" standalone="no"?>
<svg width="20px" height="16px" viewBox="0 0 20 16" version="1.1" xmlns="http://www.w3.org/2000/svg" xmlns:xlink="http://www.w3.org/1999/xlink" xmlns:sketch="http://www.bohemiancoding.com/sketch/ns">
    <!-- Generator: Sketch 3.3.1 (12005) - http://www.bohemiancoding.com/sketch -->
    <title>Shape</title>
    <desc>Created with Sketch.</desc>
    <defs></defs>
    <g id="Page-1" stroke="none" stroke-width="1" fill="none" fill-rule="evenodd" sketch:type="MSPage">
        <path d="M20,1.9 C19.3034826,2.2 18.5074627,2.4 17.6119403,2.5 C18.4079602,2 19.1044776,1.2 19.4029851,0.3 C18.6069652,0.8 17.7114428,1.1 16.8159204,1.3 C16.119403,0.5 15.0248756,0 13.8308458,0 C11.5422886,0 9.75124378,1.8 9.75124378,4 C9.75124378,4.3 9.75124378,4.6 9.85074627,4.9 C6.46766169,4.8 3.48258706,3.2 1.49253731,0.7 C1.09452736,1.3 0.895522388,2 0.895522388,2.8 C0.895522388,4.2 1.5920398,5.4 2.68656716,6.2 C2.08955224,6.1 1.49253731,5.9 0.895522388,5.6 L0.895522388,5.7 C0.895522388,7.7 2.28855721,9.3 4.17910448,9.7 C3.88059701,9.7 3.48258706,9.8 3.08457711,9.8 C2.78606965,9.8 2.58706468,9.8 2.28855721,9.7 C2.78606965,11.3 4.27860697,12.5 6.06965174,12.5 C4.67661692,13.6 2.88557214,14.2 0.995024876,14.2 C0.696517413,14.2 0.298507463,14.2 0,14.1 C1.89054726,15.3 4.07960199,16 6.3681592,16 C13.8308458,16 18.0099502,9.8 18.0099502,4.5 L18.0099502,4 C18.8059701,3.4 19.5024876,2.7 20,1.9 L20,1.9 Z" id="Shape" fill="#CCCCCC" sketch:type="MSShapeGroup"></path>
    </g>
</svg>